# xmcd CD database file
#
# Track frame offsets:
#	150
#	36540
#	77098
#	109554
#	166746
#	191812
#	234861
#	261261
#
# Disc length: 3993 seconds
#
# Revision: 1
# Processed by: cddbd v1.5.2PL0 Copyright (c) Steve Scherf et al.
# Submitted via: CDex 1.51
#
DISCID=600f9708
DTITLE=Golbin, Benny - Significantly Strange
DYEAR=2008
DGENRE=Jazz
TTITLE0=Blues for Oliver
TTITLE1=Autimn Sketch
TTITLE2=Spring Sketch
TTITLE3=I Don't Deserve This
TTITLE4=You Stepped Out of a Dream
TTITLE5=Boulevard of Broken Dreams
TTITLE6=Dedication
TTITLE7=Significantly Strange
EXTD=YEAR: 2008
EXTT0=
EXTT1=
EXTT2=
EXTT3=
EXTT4=
EXTT5=
EXTT6=
EXTT7=
PLAYORDER=
